<mxfile host="app.diagrams.net" modified="2023-05-31T14:35:44.665Z" agent="Mozilla/5.0 (Windows NT 10.0; Win64; x64) AppleWebKit/537.36 (KHTML, like Gecko) Chrome/114.0.0.0 Safari/537.36" etag="BlnssmDCAPE0AlPtGKvL" version="21.3.4" type="device">
  <diagram name="PÃ¡gina-1" id="zUJN5Fp_qOm6YFDYk1Vi">
    <mxGraphModel dx="880" dy="484" grid="1" gridSize="10" guides="1" tooltips="1" connect="1" arrows="1" fold="1" page="1" pageScale="1" pageWidth="827" pageHeight="1169" math="0" shadow="0">
      <root>
        <mxCell id="0" />
        <mxCell id="1" parent="0" />
        <mxCell id="zm4ny0lh-kMbwNhFOmkw-12" style="edgeStyle=orthogonalEdgeStyle;rounded=0;orthogonalLoop=1;jettySize=auto;html=1;entryX=0.5;entryY=0;entryDx=0;entryDy=0;" edge="1" parent="1" source="zm4ny0lh-kMbwNhFOmkw-1" target="zm4ny0lh-kMbwNhFOmkw-5">
          <mxGeometry relative="1" as="geometry" />
        </mxCell>
        <mxCell id="zm4ny0lh-kMbwNhFOmkw-13" value="Contains and&lt;br&gt;Config" style="edgeLabel;html=1;align=center;verticalAlign=middle;resizable=0;points=[];" vertex="1" connectable="0" parent="zm4ny0lh-kMbwNhFOmkw-12">
          <mxGeometry x="-0.3333" y="-1" relative="1" as="geometry">
            <mxPoint as="offset" />
          </mxGeometry>
        </mxCell>
        <mxCell id="zm4ny0lh-kMbwNhFOmkw-1" value="Player" style="swimlane;fontStyle=1;align=center;verticalAlign=top;childLayout=stackLayout;horizontal=1;startSize=26;horizontalStack=0;resizeParent=1;resizeParentMax=0;resizeLast=0;collapsible=1;marginBottom=0;whiteSpace=wrap;html=1;" vertex="1" parent="1">
          <mxGeometry x="690" y="110" width="160" height="86" as="geometry" />
        </mxCell>
        <mxCell id="zm4ny0lh-kMbwNhFOmkw-2" value="+ field: type" style="text;strokeColor=none;fillColor=none;align=left;verticalAlign=top;spacingLeft=4;spacingRight=4;overflow=hidden;rotatable=0;points=[[0,0.5],[1,0.5]];portConstraint=eastwest;whiteSpace=wrap;html=1;" vertex="1" parent="zm4ny0lh-kMbwNhFOmkw-1">
          <mxGeometry y="26" width="160" height="26" as="geometry" />
        </mxCell>
        <mxCell id="zm4ny0lh-kMbwNhFOmkw-3" value="" style="line;strokeWidth=1;fillColor=none;align=left;verticalAlign=middle;spacingTop=-1;spacingLeft=3;spacingRight=3;rotatable=0;labelPosition=right;points=[];portConstraint=eastwest;strokeColor=inherit;" vertex="1" parent="zm4ny0lh-kMbwNhFOmkw-1">
          <mxGeometry y="52" width="160" height="8" as="geometry" />
        </mxCell>
        <mxCell id="zm4ny0lh-kMbwNhFOmkw-4" value="+ method(type): type" style="text;strokeColor=none;fillColor=none;align=left;verticalAlign=top;spacingLeft=4;spacingRight=4;overflow=hidden;rotatable=0;points=[[0,0.5],[1,0.5]];portConstraint=eastwest;whiteSpace=wrap;html=1;" vertex="1" parent="zm4ny0lh-kMbwNhFOmkw-1">
          <mxGeometry y="60" width="160" height="26" as="geometry" />
        </mxCell>
        <mxCell id="zm4ny0lh-kMbwNhFOmkw-5" value="MachineState" style="swimlane;fontStyle=1;align=center;verticalAlign=top;childLayout=stackLayout;horizontal=1;startSize=26;horizontalStack=0;resizeParent=1;resizeParentMax=0;resizeLast=0;collapsible=1;marginBottom=0;whiteSpace=wrap;html=1;" vertex="1" parent="1">
          <mxGeometry x="690" y="270" width="160" height="112" as="geometry" />
        </mxCell>
        <mxCell id="zm4ny0lh-kMbwNhFOmkw-6" value="+ field: type" style="text;strokeColor=none;fillColor=none;align=left;verticalAlign=top;spacingLeft=4;spacingRight=4;overflow=hidden;rotatable=0;points=[[0,0.5],[1,0.5]];portConstraint=eastwest;whiteSpace=wrap;html=1;" vertex="1" parent="zm4ny0lh-kMbwNhFOmkw-5">
          <mxGeometry y="26" width="160" height="26" as="geometry" />
        </mxCell>
        <mxCell id="zm4ny0lh-kMbwNhFOmkw-7" value="" style="line;strokeWidth=1;fillColor=none;align=left;verticalAlign=middle;spacingTop=-1;spacingLeft=3;spacingRight=3;rotatable=0;labelPosition=right;points=[];portConstraint=eastwest;strokeColor=inherit;" vertex="1" parent="zm4ny0lh-kMbwNhFOmkw-5">
          <mxGeometry y="52" width="160" height="8" as="geometry" />
        </mxCell>
        <mxCell id="zm4ny0lh-kMbwNhFOmkw-8" value="melee_attack_state()" style="text;strokeColor=none;fillColor=none;align=left;verticalAlign=top;spacingLeft=4;spacingRight=4;overflow=hidden;rotatable=0;points=[[0,0.5],[1,0.5]];portConstraint=eastwest;whiteSpace=wrap;html=1;" vertex="1" parent="zm4ny0lh-kMbwNhFOmkw-5">
          <mxGeometry y="60" width="160" height="26" as="geometry" />
        </mxCell>
        <mxCell id="zm4ny0lh-kMbwNhFOmkw-9" value="ranged_attack_state()" style="text;strokeColor=none;fillColor=none;align=left;verticalAlign=top;spacingLeft=4;spacingRight=4;overflow=hidden;rotatable=0;points=[[0,0.5],[1,0.5]];portConstraint=eastwest;whiteSpace=wrap;html=1;" vertex="1" parent="zm4ny0lh-kMbwNhFOmkw-5">
          <mxGeometry y="86" width="160" height="26" as="geometry" />
        </mxCell>
        <mxCell id="zm4ny0lh-kMbwNhFOmkw-14" value="WeaponsManager" style="swimlane;fontStyle=1;align=center;verticalAlign=top;childLayout=stackLayout;horizontal=1;startSize=26;horizontalStack=0;resizeParent=1;resizeParentMax=0;resizeLast=0;collapsible=1;marginBottom=0;whiteSpace=wrap;html=1;" vertex="1" parent="1">
          <mxGeometry x="320" y="270" width="160" height="138" as="geometry" />
        </mxCell>
        <mxCell id="zm4ny0lh-kMbwNhFOmkw-15" value="+ field: type" style="text;strokeColor=none;fillColor=none;align=left;verticalAlign=top;spacingLeft=4;spacingRight=4;overflow=hidden;rotatable=0;points=[[0,0.5],[1,0.5]];portConstraint=eastwest;whiteSpace=wrap;html=1;" vertex="1" parent="zm4ny0lh-kMbwNhFOmkw-14">
          <mxGeometry y="26" width="160" height="26" as="geometry" />
        </mxCell>
        <mxCell id="zm4ny0lh-kMbwNhFOmkw-16" value="" style="line;strokeWidth=1;fillColor=none;align=left;verticalAlign=middle;spacingTop=-1;spacingLeft=3;spacingRight=3;rotatable=0;labelPosition=right;points=[];portConstraint=eastwest;strokeColor=inherit;" vertex="1" parent="zm4ny0lh-kMbwNhFOmkw-14">
          <mxGeometry y="52" width="160" height="8" as="geometry" />
        </mxCell>
        <mxCell id="zm4ny0lh-kMbwNhFOmkw-17" value="attack_melee()" style="text;strokeColor=none;fillColor=none;align=left;verticalAlign=top;spacingLeft=4;spacingRight=4;overflow=hidden;rotatable=0;points=[[0,0.5],[1,0.5]];portConstraint=eastwest;whiteSpace=wrap;html=1;" vertex="1" parent="zm4ny0lh-kMbwNhFOmkw-14">
          <mxGeometry y="60" width="160" height="26" as="geometry" />
        </mxCell>
        <mxCell id="zm4ny0lh-kMbwNhFOmkw-34" value="ranged_attack()" style="text;strokeColor=none;fillColor=none;align=left;verticalAlign=top;spacingLeft=4;spacingRight=4;overflow=hidden;rotatable=0;points=[[0,0.5],[1,0.5]];portConstraint=eastwest;whiteSpace=wrap;html=1;" vertex="1" parent="zm4ny0lh-kMbwNhFOmkw-14">
          <mxGeometry y="86" width="160" height="26" as="geometry" />
        </mxCell>
        <mxCell id="zm4ny0lh-kMbwNhFOmkw-50" value="aim()" style="text;strokeColor=none;fillColor=none;align=left;verticalAlign=top;spacingLeft=4;spacingRight=4;overflow=hidden;rotatable=0;points=[[0,0.5],[1,0.5]];portConstraint=eastwest;whiteSpace=wrap;html=1;" vertex="1" parent="zm4ny0lh-kMbwNhFOmkw-14">
          <mxGeometry y="112" width="160" height="26" as="geometry" />
        </mxCell>
        <mxCell id="zm4ny0lh-kMbwNhFOmkw-18" style="edgeStyle=orthogonalEdgeStyle;rounded=0;orthogonalLoop=1;jettySize=auto;html=1;exitX=0;exitY=0.5;exitDx=0;exitDy=0;entryX=1;entryY=0.5;entryDx=0;entryDy=0;" edge="1" parent="1" source="zm4ny0lh-kMbwNhFOmkw-8" target="zm4ny0lh-kMbwNhFOmkw-17">
          <mxGeometry relative="1" as="geometry" />
        </mxCell>
        <mxCell id="zm4ny0lh-kMbwNhFOmkw-23" value="Sword" style="swimlane;fontStyle=1;align=center;verticalAlign=top;childLayout=stackLayout;horizontal=1;startSize=26;horizontalStack=0;resizeParent=1;resizeParentMax=0;resizeLast=0;collapsible=1;marginBottom=0;whiteSpace=wrap;html=1;" vertex="1" parent="1">
          <mxGeometry x="540" y="460" width="160" height="52" as="geometry" />
        </mxCell>
        <mxCell id="zm4ny0lh-kMbwNhFOmkw-26" value="attack()" style="text;strokeColor=none;fillColor=none;align=left;verticalAlign=top;spacingLeft=4;spacingRight=4;overflow=hidden;rotatable=0;points=[[0,0.5],[1,0.5]];portConstraint=eastwest;whiteSpace=wrap;html=1;" vertex="1" parent="zm4ny0lh-kMbwNhFOmkw-23">
          <mxGeometry y="26" width="160" height="26" as="geometry" />
        </mxCell>
        <mxCell id="zm4ny0lh-kMbwNhFOmkw-67" style="edgeStyle=orthogonalEdgeStyle;rounded=0;orthogonalLoop=1;jettySize=auto;html=1;exitX=0.25;exitY=0;exitDx=0;exitDy=0;entryX=-0.006;entryY=0.118;entryDx=0;entryDy=0;entryPerimeter=0;dashed=1;dashPattern=1 4;" edge="1" parent="1" source="zm4ny0lh-kMbwNhFOmkw-27" target="zm4ny0lh-kMbwNhFOmkw-14">
          <mxGeometry relative="1" as="geometry" />
        </mxCell>
        <mxCell id="zm4ny0lh-kMbwNhFOmkw-68" value="Avisa que atirou&lt;br&gt;Para descontar uma bala" style="edgeLabel;html=1;align=center;verticalAlign=middle;resizable=0;points=[];" vertex="1" connectable="0" parent="zm4ny0lh-kMbwNhFOmkw-67">
          <mxGeometry x="0.5911" y="1" relative="1" as="geometry">
            <mxPoint as="offset" />
          </mxGeometry>
        </mxCell>
        <mxCell id="zm4ny0lh-kMbwNhFOmkw-27" value="Gun" style="swimlane;fontStyle=1;align=center;verticalAlign=top;childLayout=stackLayout;horizontal=1;startSize=26;horizontalStack=0;resizeParent=1;resizeParentMax=0;resizeLast=0;collapsible=1;marginBottom=0;whiteSpace=wrap;html=1;" vertex="1" parent="1">
          <mxGeometry x="60" y="464" width="160" height="86" as="geometry" />
        </mxCell>
        <mxCell id="zm4ny0lh-kMbwNhFOmkw-28" value="signal: fired" style="text;strokeColor=none;fillColor=none;align=left;verticalAlign=top;spacingLeft=4;spacingRight=4;overflow=hidden;rotatable=0;points=[[0,0.5],[1,0.5]];portConstraint=eastwest;whiteSpace=wrap;html=1;" vertex="1" parent="zm4ny0lh-kMbwNhFOmkw-27">
          <mxGeometry y="26" width="160" height="26" as="geometry" />
        </mxCell>
        <mxCell id="zm4ny0lh-kMbwNhFOmkw-29" value="" style="line;strokeWidth=1;fillColor=none;align=left;verticalAlign=middle;spacingTop=-1;spacingLeft=3;spacingRight=3;rotatable=0;labelPosition=right;points=[];portConstraint=eastwest;strokeColor=inherit;" vertex="1" parent="zm4ny0lh-kMbwNhFOmkw-27">
          <mxGeometry y="52" width="160" height="8" as="geometry" />
        </mxCell>
        <mxCell id="zm4ny0lh-kMbwNhFOmkw-30" value="fire()" style="text;strokeColor=none;fillColor=none;align=left;verticalAlign=top;spacingLeft=4;spacingRight=4;overflow=hidden;rotatable=0;points=[[0,0.5],[1,0.5]];portConstraint=eastwest;whiteSpace=wrap;html=1;" vertex="1" parent="zm4ny0lh-kMbwNhFOmkw-27">
          <mxGeometry y="60" width="160" height="26" as="geometry" />
        </mxCell>
        <mxCell id="zm4ny0lh-kMbwNhFOmkw-32" style="edgeStyle=orthogonalEdgeStyle;rounded=0;orthogonalLoop=1;jettySize=auto;html=1;" edge="1" parent="1" source="zm4ny0lh-kMbwNhFOmkw-17" target="zm4ny0lh-kMbwNhFOmkw-23">
          <mxGeometry relative="1" as="geometry" />
        </mxCell>
        <mxCell id="zm4ny0lh-kMbwNhFOmkw-33" value="Attack" style="edgeLabel;html=1;align=center;verticalAlign=middle;resizable=0;points=[];" vertex="1" connectable="0" parent="zm4ny0lh-kMbwNhFOmkw-32">
          <mxGeometry x="0.5254" y="-2" relative="1" as="geometry">
            <mxPoint as="offset" />
          </mxGeometry>
        </mxCell>
        <mxCell id="zm4ny0lh-kMbwNhFOmkw-35" style="edgeStyle=orthogonalEdgeStyle;rounded=0;orthogonalLoop=1;jettySize=auto;html=1;entryX=1;entryY=0.5;entryDx=0;entryDy=0;" edge="1" parent="1" source="zm4ny0lh-kMbwNhFOmkw-9" target="zm4ny0lh-kMbwNhFOmkw-34">
          <mxGeometry relative="1" as="geometry" />
        </mxCell>
        <mxCell id="zm4ny0lh-kMbwNhFOmkw-36" style="edgeStyle=orthogonalEdgeStyle;rounded=0;orthogonalLoop=1;jettySize=auto;html=1;entryX=0.5;entryY=0;entryDx=0;entryDy=0;" edge="1" parent="1" source="zm4ny0lh-kMbwNhFOmkw-34" target="zm4ny0lh-kMbwNhFOmkw-27">
          <mxGeometry relative="1" as="geometry" />
        </mxCell>
        <mxCell id="zm4ny0lh-kMbwNhFOmkw-37" value="Fire se tiver bala" style="edgeLabel;html=1;align=center;verticalAlign=middle;resizable=0;points=[];" vertex="1" connectable="0" parent="zm4ny0lh-kMbwNhFOmkw-36">
          <mxGeometry x="-0.0413" y="1" relative="1" as="geometry">
            <mxPoint as="offset" />
          </mxGeometry>
        </mxCell>
        <mxCell id="zm4ny0lh-kMbwNhFOmkw-40" style="edgeStyle=orthogonalEdgeStyle;rounded=0;orthogonalLoop=1;jettySize=auto;html=1;entryX=1;entryY=0.5;entryDx=0;entryDy=0;dashed=1;" edge="1" parent="1" source="zm4ny0lh-kMbwNhFOmkw-38" target="zm4ny0lh-kMbwNhFOmkw-8">
          <mxGeometry relative="1" as="geometry" />
        </mxCell>
        <mxCell id="zm4ny0lh-kMbwNhFOmkw-38" value="Ataca instantanemente na direÃ§Ã£o no qual o player estÃ¡ olhando" style="html=1;dropTarget=0;whiteSpace=wrap;" vertex="1" parent="1">
          <mxGeometry x="1000" y="240" width="180" height="90" as="geometry" />
        </mxCell>
        <mxCell id="zm4ny0lh-kMbwNhFOmkw-39" value="" style="shape=module;jettyWidth=8;jettyHeight=4;" vertex="1" parent="zm4ny0lh-kMbwNhFOmkw-38">
          <mxGeometry x="1" width="20" height="20" relative="1" as="geometry">
            <mxPoint x="-27" y="7" as="offset" />
          </mxGeometry>
        </mxCell>
        <mxCell id="zm4ny0lh-kMbwNhFOmkw-43" style="edgeStyle=orthogonalEdgeStyle;rounded=0;orthogonalLoop=1;jettySize=auto;html=1;entryX=1;entryY=0.5;entryDx=0;entryDy=0;dashed=1;" edge="1" parent="1" source="zm4ny0lh-kMbwNhFOmkw-41" target="zm4ny0lh-kMbwNhFOmkw-9">
          <mxGeometry relative="1" as="geometry" />
        </mxCell>
        <mxCell id="zm4ny0lh-kMbwNhFOmkw-41" value="Ao entrar nesse estado, fica mirando chamando a funÃ§Ã£o aim() da WeaponsManager . E quando apertar para atirar, irÃ¡ atirar na direÃ§Ã£o que a mira aponta" style="html=1;dropTarget=0;whiteSpace=wrap;" vertex="1" parent="1">
          <mxGeometry x="920" y="440" width="200" height="110" as="geometry" />
        </mxCell>
        <mxCell id="zm4ny0lh-kMbwNhFOmkw-42" value="" style="shape=module;jettyWidth=8;jettyHeight=4;" vertex="1" parent="zm4ny0lh-kMbwNhFOmkw-41">
          <mxGeometry x="1" width="20" height="20" relative="1" as="geometry">
            <mxPoint x="-27" y="7" as="offset" />
          </mxGeometry>
        </mxCell>
        <mxCell id="zm4ny0lh-kMbwNhFOmkw-46" value="AimingSystem" style="swimlane;fontStyle=1;align=center;verticalAlign=top;childLayout=stackLayout;horizontal=1;startSize=26;horizontalStack=0;resizeParent=1;resizeParentMax=0;resizeLast=0;collapsible=1;marginBottom=0;whiteSpace=wrap;html=1;" vertex="1" parent="1">
          <mxGeometry x="380" y="570" width="160" height="104" as="geometry" />
        </mxCell>
        <mxCell id="zm4ny0lh-kMbwNhFOmkw-53" value="aim()" style="text;strokeColor=none;fillColor=none;align=left;verticalAlign=top;spacingLeft=4;spacingRight=4;overflow=hidden;rotatable=0;points=[[0,0.5],[1,0.5]];portConstraint=eastwest;whiteSpace=wrap;html=1;" vertex="1" parent="zm4ny0lh-kMbwNhFOmkw-46">
          <mxGeometry y="26" width="160" height="26" as="geometry" />
        </mxCell>
        <mxCell id="zm4ny0lh-kMbwNhFOmkw-54" value="draw_interface()" style="text;strokeColor=none;fillColor=none;align=left;verticalAlign=top;spacingLeft=4;spacingRight=4;overflow=hidden;rotatable=0;points=[[0,0.5],[1,0.5]];portConstraint=eastwest;whiteSpace=wrap;html=1;" vertex="1" parent="zm4ny0lh-kMbwNhFOmkw-46">
          <mxGeometry y="52" width="160" height="26" as="geometry" />
        </mxCell>
        <mxCell id="zm4ny0lh-kMbwNhFOmkw-55" value="get_target()" style="text;strokeColor=none;fillColor=none;align=left;verticalAlign=top;spacingLeft=4;spacingRight=4;overflow=hidden;rotatable=0;points=[[0,0.5],[1,0.5]];portConstraint=eastwest;whiteSpace=wrap;html=1;" vertex="1" parent="zm4ny0lh-kMbwNhFOmkw-46">
          <mxGeometry y="78" width="160" height="26" as="geometry" />
        </mxCell>
        <mxCell id="zm4ny0lh-kMbwNhFOmkw-51" style="edgeStyle=orthogonalEdgeStyle;rounded=0;orthogonalLoop=1;jettySize=auto;html=1;entryX=0.5;entryY=0;entryDx=0;entryDy=0;" edge="1" parent="1" source="zm4ny0lh-kMbwNhFOmkw-50" target="zm4ny0lh-kMbwNhFOmkw-46">
          <mxGeometry relative="1" as="geometry" />
        </mxCell>
        <mxCell id="zm4ny0lh-kMbwNhFOmkw-52" value="Fala para mirar &lt;br&gt;para o trajeto designado" style="edgeLabel;html=1;align=center;verticalAlign=middle;resizable=0;points=[];" vertex="1" connectable="0" parent="zm4ny0lh-kMbwNhFOmkw-51">
          <mxGeometry x="0.1887" y="-2" relative="1" as="geometry">
            <mxPoint as="offset" />
          </mxGeometry>
        </mxCell>
        <mxCell id="zm4ny0lh-kMbwNhFOmkw-65" style="edgeStyle=orthogonalEdgeStyle;rounded=0;orthogonalLoop=1;jettySize=auto;html=1;entryX=0.995;entryY=0.183;entryDx=0;entryDy=0;entryPerimeter=0;" edge="1" parent="1" source="zm4ny0lh-kMbwNhFOmkw-50" target="zm4ny0lh-kMbwNhFOmkw-27">
          <mxGeometry relative="1" as="geometry" />
        </mxCell>
        <mxCell id="zm4ny0lh-kMbwNhFOmkw-66" value="Aponta arma na direÃ§Ã£o que&lt;br&gt;AimingSystem aponta" style="edgeLabel;html=1;align=center;verticalAlign=middle;resizable=0;points=[];" vertex="1" connectable="0" parent="zm4ny0lh-kMbwNhFOmkw-65">
          <mxGeometry x="-0.2044" y="-1" relative="1" as="geometry">
            <mxPoint y="21" as="offset" />
          </mxGeometry>
        </mxCell>
        <mxCell id="zm4ny0lh-kMbwNhFOmkw-72" style="edgeStyle=orthogonalEdgeStyle;rounded=0;orthogonalLoop=1;jettySize=auto;html=1;entryX=0.938;entryY=0;entryDx=0;entryDy=0;entryPerimeter=0;" edge="1" parent="1" source="zm4ny0lh-kMbwNhFOmkw-2" target="zm4ny0lh-kMbwNhFOmkw-14">
          <mxGeometry relative="1" as="geometry" />
        </mxCell>
        <mxCell id="zm4ny0lh-kMbwNhFOmkw-73" value="Contains" style="edgeLabel;html=1;align=center;verticalAlign=middle;resizable=0;points=[];" vertex="1" connectable="0" parent="zm4ny0lh-kMbwNhFOmkw-72">
          <mxGeometry x="0.0091" y="5" relative="1" as="geometry">
            <mxPoint as="offset" />
          </mxGeometry>
        </mxCell>
      </root>
    </mxGraphModel>
  </diagram>
</mxfile>
